<?xml version="1.0" encoding="UTF-8" standalone="no"?>
<!DOCTYPE svg PUBLIC "-//W3C//DTD SVG 1.1//EN" "http://www.w3.org/Graphics/SVG/1.1/DTD/svg11.dtd">
<svg width="100%" height="100%" viewBox="0 0 3061 1368" version="1.1" xmlns="http://www.w3.org/2000/svg" xmlns:xlink="http://www.w3.org/1999/xlink" xml:space="preserve" xmlns:serif="http://www.serif.com/" style="fill-rule:evenodd;clip-rule:evenodd;stroke-linejoin:round;stroke-miterlimit:2;">
    <g transform="matrix(1,0,0,1,-344.791993,-925.829519)">
        <g transform="matrix(4.166667,0,0,4.166667,0,0)">
            <g transform="matrix(1,0,0,1,36.385178,-44.193641)">
                <g transform="matrix(1,0,0,1,683.5425,472.0297)">
                    <path d="M0,-88.406C-2.523,-86.864 -4.233,-85.606 -6.114,-84.703C-17.285,-79.341 -28.486,-74.041 -39.707,-68.784C-40.805,-68.269 -42.093,-68.119 -43.312,-67.906C-52.082,-66.378 -55.976,-70.173 -54.342,-78.821C-53.74,-82.002 -53.548,-84.303 -57.317,-86.047C-60.12,-87.343 -59.023,-90.233 -57.034,-92.222C-62.189,-95.295 -62.233,-95.438 -59.912,-100.926C-58.851,-103.434 -60.203,-106.031 -62.905,-106.559C-63.751,-106.724 -64.645,-106.627 -65.504,-106.743C-69.997,-107.35 -71.08,-109.992 -68.512,-113.709C-65.266,-118.406 -62.066,-123.139 -58.983,-127.945C-56.47,-131.863 -55.562,-135.884 -57.257,-140.643C-60.379,-149.414 -58.897,-158.269 -56.615,-167.012C-55.772,-170.241 -55.06,-173.515 -54.013,-176.678C-48.745,-192.59 -36.974,-201.054 -21.17,-204.173C13.559,-211.028 51.085,-193.267 67.892,-162.252C71.852,-154.944 74.358,-147.148 74.314,-138.654C70.92,-151.414 65.424,-162.764 53.777,-170.159C59.233,-164.303 63.192,-157.582 65.817,-150.065C55.582,-165.569 42.144,-177.135 24.793,-183.941C16.247,-187.292 7.395,-188.927 -1.828,-188.219C-7.898,-187.754 -13.615,-186.375 -18.45,-181.96C-14.774,-194.776 8.781,-198.977 32.067,-190.874C31.362,-191.631 31.158,-191.992 30.848,-192.162C18.435,-198.985 5.374,-202.581 -8.874,-199.883C-22.016,-197.395 -32.655,-184.089 -26.691,-169.756C-21.67,-157.689 -13.802,-147.781 -3.251,-140.455C7.325,-133.111 18.716,-126.943 29.721,-120.213C42.314,-112.513 55.299,-105.359 67.326,-96.856C78.194,-89.171 86.449,-78.726 91.451,-66.16C99.761,-45.287 93.482,-21.751 75.635,-6.521C72.205,-3.594 68.473,-1.02 64.668,1.43C102.136,-24.048 88.107,-75.458 57.477,-92.674C72.814,-79.413 83.494,-63.823 82.896,-42.545C81.377,-46.728 80.182,-51.025 78.307,-55.001C71.685,-69.041 60.275,-78.61 47.434,-86.508C33.579,-95.029 19.308,-102.871 5.387,-111.287C-5.705,-117.992 -16.136,-125.619 -24.647,-135.565C-33.154,-145.508 -39.567,-156.442 -39.783,-169.962C-39.965,-181.399 -35.424,-190.667 -26.016,-197.394C-25.656,-197.651 -25.317,-197.937 -24.491,-198.584C-37.969,-194.916 -46.996,-179.696 -44.869,-166.002C-43.647,-158.135 -41.174,-150.791 -37.347,-143.943C-35.839,-141.243 -33.169,-139.193 -30.86,-136.661C-31.89,-136.471 -32.868,-136.291 -34.148,-136.054C-27.698,-127.954 -20.092,-121.76 -11.752,-116.237C14.923,-98.572 31.033,-60.814 17.112,-25.408C10.991,-9.842 -0.826,0.371 -15.512,7.326C-26.044,12.314 -36.954,16.512 -47.732,20.973C-62.001,26.88 -76.175,32.996 -87.637,43.737C-100.753,56.026 -105.91,70.788 -100.292,88.543C-100.292,86.822 -100.358,85.098 -100.274,83.381C-100.183,81.526 -100.136,79.639 -99.755,77.832C-96.186,60.901 -85.606,49.719 -70.293,42.721C-56.576,36.452 -41.809,34.202 -27.006,32.3C-9.805,30.089 7.094,26.893 22.477,18.263C37.517,9.825 49.837,-1.209 56.032,-17.768C63.849,-38.657 60.248,-57.781 46.357,-75.076C44.416,-77.494 42.345,-79.808 40.684,-82.664C43.68,-80.426 46.822,-78.358 49.646,-75.922C64.202,-63.369 73.378,-48.23 71.803,-28.202C70.39,-10.236 60.739,3.084 47.333,14.114C33.508,25.49 17.114,31.686 0.183,36.435C-17.264,41.33 -34.954,45.358 -52.413,50.214C-64.06,53.454 -75.21,57.962 -84.475,66.217C-99.167,79.31 -100.387,96.516 -87.254,111.237C-83.737,115.179 -79.563,118.535 -75.196,122.622C-88.196,115.472 -98.789,106.704 -105.78,94.054C-109.399,87.507 -111.344,80.423 -111.081,72.993C-110.657,61.013 -105.563,50.962 -97.112,42.602C-88.364,33.949 -77.961,27.653 -67.185,21.908C-56.993,16.475 -46.491,11.533 -36.734,5.405C-28.492,0.23 -20.432,-5.634 -13.524,-12.443C-2.1,-23.704 -0.375,-38.367 -1.992,-53.64C-2.005,-53.761 -2.065,-53.877 -2.108,-53.994C-6.166,-64.904 -5.821,-75.599 -0.566,-86.065C-0.359,-86.476 -0.336,-86.979 0,-88.406" style="fill:url(#_Linear1);fill-rule:nonzero;"/>
                </g>
                <g transform="matrix(1,0,0,1,176.9509,478.905)">
                    <path d="M0,67.737C1.127,65.983 2.254,64.23 3.969,61.56C1.281,61.56 -0.731,61.531 -2.741,61.565C-19.425,61.844 -36.074,61.1 -52.288,56.988C-77.021,50.716 -98.404,38.775 -114.218,18.142C-115.822,16.049 -117.219,13.798 -118.276,11.41C-113.526,16.256 -108.98,21.324 -103.988,25.907C-86.948,41.554 -66.056,48.492 -43.737,52.116C-30.274,54.301 -16.759,53.978 -3.226,53.194C-2.36,53.144 -1.481,53.084 -0.64,52.891C4.3,51.763 4.815,50.228 1.639,46.28C1.135,45.653 0.706,44.966 0.672,43.855C1.959,44.892 3.204,45.988 4.541,46.955C7.712,49.247 9.95,48.299 10.459,44.474C10.666,42.919 10.791,41.353 10.947,39.855C12.092,42.449 12.629,46.31 14.436,47.044C16.391,47.838 19.532,45.714 21.998,44.913C22.014,44.608 22.069,44.862 21.98,45.047C21.214,46.638 20.422,48.218 19.638,49.801C21.491,50.024 23.386,50.617 25.191,50.414C47.835,47.87 69.977,42.72 91.921,36.813C137.478,24.548 182.903,11.788 228.465,-0.462C251.518,-6.66 275.063,-10.502 298.896,-11.805C315.153,-12.693 331.555,-12.563 347.087,-6.617C352.854,-4.409 358.104,-0.85 363.272,2.736C351.86,-5.097 338.79,-7.673 325.476,-9.079C310.943,-10.614 296.49,-8.908 282.122,-6.723C248.596,-1.625 216.389,8.615 184.094,18.52C145.758,30.277 107.783,43.321 68.588,52.068C54.791,55.147 40.748,57.123 26.816,59.597C26.206,59.705 25.467,59.557 24.987,59.853C23.374,60.845 21.851,61.984 20.294,63.067C21.784,65.175 23.008,67.671 26.301,67.108C43.17,64.22 60.175,61.959 76.881,58.324C113.702,50.31 149.263,37.861 185.091,26.388C214.071,17.107 243.052,7.82 272.901,1.649C291.212,-2.136 309.709,-4.1 328.439,-3.043C339.838,-2.399 350.84,-0.14 360.986,5.369C375.316,13.149 379.38,27.791 370.704,42.489C366.351,49.865 359.712,54.965 352.293,58.949C320.342,76.107 274.802,73.26 245.07,49.307C244.044,48.48 243.107,47.544 241.457,46.052C247.574,49.577 252.655,53.13 258.215,55.606C289.24,69.426 319.925,68.939 349.701,52.043C357.579,47.573 363.84,41.07 366.034,31.686C367.335,26.121 365.626,21.368 361.868,17.297C355.429,10.321 346.846,7.794 337.916,6.365C318.801,3.307 300.055,6.407 281.438,10.408C247.246,17.756 214.289,29.311 181.176,40.294C149.7,50.735 118.189,61.027 85.857,68.568C54.518,75.879 22.83,80.43 -9.41,78.678C-43.714,76.815 -76.047,68.107 -104.789,48.459C-114.665,41.708 -123.342,33.602 -130.586,23.934C-128.94,25.441 -127.284,26.937 -125.651,28.458C-103.66,48.942 -77.119,59.902 -48.04,65.561C-33.866,68.32 -19.582,69.804 -5.132,69.048C-3.366,68.956 -1.639,68.117 0.108,67.622C0.616,68.042 1.137,68.843 1.623,68.823C4.541,68.7 7.451,68.389 11.503,68.044C9.961,66.095 9.183,64.17 7.959,63.825C6.682,63.465 4.893,64.461 3.482,65.172C2.213,65.811 1.152,66.866 0,67.737" style="fill:url(#_Linear2);fill-rule:nonzero;"/>
                </g>
                <g transform="matrix(1,0,0,1,591.877,435.9011)">
                    <path d="M0,-20.005C-4.794,-12.821 -9.037,-6.692 -13.014,-0.394C-14.723,2.311 -16.011,5.312 -17.205,8.293C-17.575,9.217 -17.39,11.043 -16.761,11.507C-16.058,12.024 -14.224,11.89 -13.463,11.296C-8.969,7.792 -4.372,4.346 -0.334,0.35C4.158,-4.093 8.115,-9.081 12.243,-13.885C13.03,-14.8 13.531,-15.96 14.163,-17.007C14.701,-16.653 15.239,-16.3 15.777,-15.946C15.413,-14.722 15.377,-13.228 14.63,-12.319C9.441,-6.003 4.323,0.396 -1.267,6.347C-4.634,9.932 -8.756,12.826 -12.652,15.886C-13.895,16.861 -15.447,17.538 -16.958,18.059C-20.871,19.409 -24.875,19.904 -28.198,16.806C-31.517,13.712 -30.646,9.798 -29.644,5.993C-29.396,5.051 -29.088,4.124 -28.614,2.546C-32.51,5.874 -35.7,9.104 -39.385,11.606C-43.246,14.227 -47.376,16.753 -51.755,18.244C-59.449,20.864 -64.467,16.895 -64.607,8.829C-64.629,7.607 -64.61,6.385 -64.61,4.375C-67.288,6.758 -69.343,9.036 -71.816,10.688C-76.105,13.554 -80.362,16.949 -85.157,18.474C-93.831,21.234 -99.196,15.971 -97.209,7.107C-96.359,3.314 -94.695,-0.469 -92.64,-3.786C-88.065,-11.172 -83.01,-18.262 -78.153,-25.473C-77.598,-26.297 -76.9,-27.07 -76.551,-27.976C-76.239,-28.783 -76.319,-29.741 -76.226,-30.633C-77.134,-30.521 -78.265,-30.716 -78.914,-30.246C-83.033,-27.265 -87.437,-24.531 -91.017,-20.98C-100.435,-11.639 -109.666,-2.089 -118.553,7.755C-121.065,10.538 -122.135,14.624 -124.168,18.721C-130.513,20.161 -135.092,15.626 -132.44,8.448C-130.228,2.46 -126.737,-3.069 -123.647,-8.711C-122.072,-11.59 -120.134,-14.27 -118.317,-17.108C-123.102,-16.489 -127.511,-16.068 -131.843,-15.241C-132.797,-15.058 -133.716,-13.553 -134.246,-12.461C-140.176,-0.247 -148.738,9.43 -160.958,15.659C-166.303,18.384 -171.979,19.415 -177.927,19.017C-184.005,18.61 -188.395,14.626 -189.362,8.629C-189.616,7.054 -189.621,5.44 -189.796,3.088C-192.933,5.952 -195.499,8.743 -198.506,10.928C-202.289,13.678 -206.264,16.282 -210.47,18.294C-214.242,20.099 -218.37,19.765 -221.653,16.801C-224.738,14.015 -224.804,10.061 -223.308,6.773C-220.141,-0.189 -216.533,-6.982 -212.653,-13.579C-209.893,-18.272 -206.336,-22.492 -203.274,-27.017C-202.671,-27.908 -202.706,-29.229 -202.447,-30.352C-203.651,-30.153 -205.166,-30.355 -206.012,-29.696C-221.164,-17.899 -235.467,-5.237 -245.805,11.224C-247.122,13.321 -247.689,15.889 -248.778,18.689C-253.693,20.217 -259.965,15.485 -257.286,7.258C-255.508,1.796 -252.34,-3.273 -249.382,-8.275C-245.717,-14.472 -241.564,-20.378 -237.778,-26.506C-237.102,-27.599 -237.185,-29.161 -236.918,-30.506C-238.152,-30.17 -239.653,-30.171 -240.574,-29.44C-244.654,-26.203 -248.723,-22.921 -252.51,-19.352C-262.379,-10.055 -272.035,-0.531 -279.153,11.16C-280.53,13.421 -281.309,16.045 -282.485,18.782C-290.955,20.034 -292.988,16.434 -290.08,3.709C-292.836,6.247 -295.281,8.65 -297.887,10.863C-302.468,14.755 -307.398,18.066 -313.474,19.185C-320.472,20.473 -325.263,16.276 -323.321,9.516C-321.607,3.549 -318.612,-2.169 -315.458,-7.574C-311.143,-14.964 -306.068,-21.906 -301.477,-29.14C-299.919,-31.594 -297.995,-34.278 -301.895,-38.002C-298.057,-38.002 -295.374,-38.13 -292.707,-37.975C-287.648,-37.679 -285.674,-35.135 -287.269,-30.284C-288.299,-27.151 -290.07,-24.201 -291.861,-21.393C-297.135,-13.118 -302.639,-4.99 -307.927,3.276C-309.183,5.239 -310.073,7.471 -310.876,9.672C-311.16,10.451 -310.998,11.864 -310.465,12.334C-309.955,12.784 -308.479,12.727 -307.803,12.299C-304.455,10.184 -300.968,8.171 -298.009,5.576C-286.055,-4.902 -275.637,-16.698 -268.463,-31.031C-267.558,-32.839 -267.699,-35.17 -267.356,-37.259C-267.716,-37.445 -268.076,-37.631 -268.436,-37.816C-266.535,-38.221 -264.652,-38.804 -262.729,-38.998C-255.961,-39.681 -252.818,-35.563 -255.607,-29.281C-257.205,-25.68 -259.609,-22.435 -261.677,-19.047C-262.628,-17.488 -263.643,-15.968 -264.149,-13.948C-263.503,-14.521 -262.863,-15.098 -262.213,-15.664C-254.727,-22.186 -247.389,-28.891 -239.667,-35.12C-237.167,-37.137 -233.773,-38.45 -230.584,-39.121C-224.78,-40.343 -220.608,-35.759 -222.607,-30.162C-224.125,-25.915 -226.879,-22.105 -229.121,-18.123C-229.942,-16.665 -230.871,-15.27 -231.315,-13.585C-225.202,-18.938 -219.207,-24.433 -212.931,-29.587C-209.494,-32.41 -205.696,-34.85 -201.841,-37.081C-199.868,-38.223 -197.447,-38.911 -195.164,-39.133C-190.049,-39.629 -187.313,-36.952 -187.847,-31.821C-188.094,-29.452 -189.072,-26.967 -190.349,-24.931C-194.903,-17.671 -199.832,-10.646 -204.406,-3.398C-206.718,0.265 -208.701,4.155 -210.546,8.077C-211.008,9.059 -210.729,10.83 -210.082,11.724C-209.707,12.241 -207.651,12.152 -206.802,11.618C-197.798,5.955 -189.834,-0.77 -184.519,-10.259C-176.402,-24.75 -164.89,-35.277 -148.403,-39.157C-144.495,-40.077 -139.973,-39.607 -135.991,-38.674C-131.647,-37.656 -130.399,-33.904 -132.254,-30.756C-133.844,-32.075 -135.371,-34.379 -137.08,-34.524C-139.88,-34.761 -143.263,-34.342 -145.592,-32.898C-159.986,-23.975 -171.138,-12.089 -177.272,3.977C-177.961,5.78 -178.274,7.879 -178.159,9.805C-177.92,13.78 -174.267,16.192 -170.789,14.351C-167,12.344 -163.074,10.045 -160.217,6.944C-154.1,0.304 -148.613,-6.919 -142.929,-13.951C-142.261,-14.777 -141.968,-15.907 -141.456,-16.991C-142.418,-17.879 -143.324,-18.553 -144.026,-19.397C-145.621,-21.316 -145.737,-23.957 -143.794,-24.977C-141.626,-26.116 -138.657,-26.318 -136.156,-25.998C-134.8,-25.825 -132.828,-23.832 -132.644,-22.457C-132.208,-19.189 -130.099,-19.103 -127.88,-19.129C-118.841,-19.233 -111.78,-24.327 -108.915,-32.909C-108.451,-34.298 -108.849,-35.975 -109.621,-37.584C-109.469,-37.77 -109.349,-38.073 -109.159,-38.125C-104.972,-39.29 -100.184,-41.239 -96.963,-37.347C-93.696,-33.4 -96.399,-29.091 -98.757,-25.371C-101.333,-21.308 -104.077,-17.352 -106.386,-12.973C-103.117,-15.896 -100.009,-19.025 -96.547,-21.696C-89.778,-26.921 -82.901,-32.018 -75.87,-36.881C-73.913,-38.235 -71.316,-38.927 -68.914,-39.318C-63.754,-40.157 -60.065,-36.254 -61.4,-31.202C-62.207,-28.15 -63.646,-25.156 -65.324,-22.462C-70.707,-13.818 -76.375,-5.353 -81.833,3.245C-82.953,5.01 -83.768,7.005 -84.463,8.985C-84.74,9.775 -84.631,11.127 -84.116,11.648C-83.609,12.16 -82.248,12.265 -81.469,11.98C-79.855,11.391 -78.193,10.652 -76.877,9.575C-69.79,3.776 -62.911,-2.014 -58.046,-10.198C-48.967,-25.473 -35.654,-35.571 -17.957,-39.295C-12.396,-40.465 -6.96,-39.832 -2.087,-37.041C-0.165,-35.94 1.18,-33.58 2.319,-31.532C2.618,-30.993 1.166,-29.48 0.518,-28.415C-0.216,-29.146 -1.317,-29.752 -1.616,-30.631C-2.639,-33.639 -5.001,-34.827 -7.681,-34.511C-10.814,-34.143 -14.166,-33.489 -16.869,-31.973C-30.725,-24.203 -41.447,-13.137 -49.504,0.503C-50.689,2.508 -51.563,4.772 -52.145,7.028C-52.505,8.427 -52.042,10.038 -51.948,11.554C-50.351,11.386 -48.447,11.718 -47.213,10.959C-43.317,8.562 -39.291,6.157 -36.01,3.026C-29.013,-3.65 -22.416,-10.749 -15.748,-17.763C-14.486,-19.091 -13.026,-20.726 -12.75,-22.4C-12.095,-26.376 -9.628,-25.81 -7.378,-24.751C-4.794,-23.534 -2.517,-21.663 0,-20.005" style="fill:url(#_Linear3);fill-rule:nonzero;"/>
                </g>
                <g transform="matrix(1,0,0,1,204.376,414.0982)">
                    <path d="M0,1.357C-3.794,1.838 -6.728,1.933 -9.524,2.606C-38.388,9.555 -62.673,23.769 -80.364,48.069C-82.723,51.308 -84.451,55.232 -85.572,59.099C-87.719,66.508 -84.163,72.798 -76.868,75.274C-68.183,78.223 -59.213,78.095 -50.347,76.662C-22.202,72.113 3.534,62.01 24.952,42.591C31.882,36.308 38.079,29.338 41.514,20.39C45.283,10.573 42.974,1.687 34.299,-4.245C28.38,-8.291 21.862,-11.47 15.557,-14.939C9.951,-18.022 4.511,-21.362 1.179,-27.017C-5.401,-38.186 -1.872,-48.387 4.933,-57.888C12.351,-68.246 22.539,-75.273 33.941,-80.665C46.718,-86.707 60.158,-89.941 74.299,-89.507C78.563,-89.376 82.978,-88.517 86.991,-87.068C94.122,-84.493 97.125,-78.09 95.749,-70.566C94.088,-61.48 88.51,-54.866 82.075,-48.897C74.862,-42.205 66.689,-37.095 56.672,-35.748C54.858,-35.504 52.921,-35.486 51.136,-35.84C46.064,-36.846 43.787,-41.123 45.545,-45.945C46.966,-49.843 49.718,-52.549 53.291,-53.555C52.088,-51.882 50.785,-50.272 49.703,-48.524C48.46,-46.517 49.366,-45.457 51.526,-45.405C52.618,-45.379 53.798,-45.467 54.804,-45.853C67.954,-50.9 78.562,-59.281 86.371,-70.949C90.276,-76.785 88.014,-81.974 81.009,-82.87C76.086,-83.5 70.791,-83.325 65.962,-82.212C48.447,-78.174 33.215,-69.824 21.545,-55.919C18.589,-52.398 16.276,-48.043 14.74,-43.692C12.384,-37.024 13.875,-30.623 19.807,-26.39C25.943,-22.011 32.532,-18.242 39.06,-14.442C50.834,-7.588 59.368,1.341 58.473,16.074C57.909,25.358 54.253,33.627 48.839,41.144C39.571,54.014 27.385,63.547 13.77,71.291C-4.596,81.738 -24.355,88.026 -45.412,90.17C-56.496,91.298 -67.508,91.218 -78.183,87.659C-95.241,81.972 -102.077,67.456 -94.87,51.034C-92.174,44.892 -88.448,38.749 -83.772,34.006C-62.241,12.163 -35.799,1.054 -5.151,-0.023C-4.038,-0.062 -2.914,0.032 -1.805,0.148C-1.498,0.18 -1.223,0.519 0,1.357" style="fill:url(#_Linear4);fill-rule:nonzero;"/>
                </g>
                <g transform="matrix(1,0,0,1,637.1561,382.7213)">
                    <path d="M0,115.671C7.562,113.355 15.195,111.246 22.67,108.679C38.146,103.363 52.44,96.024 62.798,82.805C81.275,59.224 83.126,26.393 67.606,0.648C67.42,0.341 67.299,-0.005 67.608,-0.84C70.509,1.813 73.615,4.276 76.275,7.152C86.273,17.96 94.84,29.65 96.437,44.901C98.769,67.163 90.033,84.325 71.798,96.878C63.105,102.863 53.552,107.147 43.234,109.164C29.003,111.946 14.647,114.092 0.345,116.511L0,115.671Z" style="fill:url(#_Linear5);fill-rule:nonzero;"/>
                </g>
                <g transform="matrix(1,0,0,1,780.863,309.3466)">
                    <path d="M0,95.905C-4.79,73.69 -19.218,59.008 -37.952,48.136C-52.105,39.922 -66.981,32.96 -81.246,24.926C-88.234,20.991 -94.796,16.181 -101.104,11.201C-104.915,8.191 -107.87,4.097 -111.663,0C-103.522,5.129 -96.453,10.57 -88.578,14.319C-75.942,20.335 -62.71,25.085 -49.845,30.639C-34.069,37.449 -20.163,46.796 -10.778,61.652C-4.195,72.072 0.101,83.302 0,95.905" style="fill:url(#_Linear6);fill-rule:nonzero;"/>
                </g>
                <g transform="matrix(1,0,0,1,317.689,389.187)">
                    <path d="M0,-8.655C-0.254,-2.409 -9.569,5.282 -15.615,4.238C-18.224,3.787 -19.159,1.697 -17.773,-0.59C-15.845,-3.772 -13.86,-6.922 -12.004,-10.145C-10.379,-12.966 -7.838,-13.937 -4.815,-13.874C-1.446,-13.805 0.136,-12.004 0,-8.655" style="fill:url(#_Linear7);fill-rule:nonzero;"/>
                </g>
            </g>
        </g>
    </g>
    <defs>
        <linearGradient id="_Linear1" x1="0" y1="0" x2="1" y2="0" gradientUnits="userSpaceOnUse" gradientTransform="matrix(734.499843,-4.479999,4.479999,734.499843,-637.1776,-51.781135)"><stop offset="0" style="stop-color:rgb(184,138,44);stop-opacity:1"/><stop offset="0.13" style="stop-color:rgb(255,248,204);stop-opacity:1"/><stop offset="0.25" style="stop-color:rgb(224,185,92);stop-opacity:1"/><stop offset="0.33" style="stop-color:white;stop-opacity:1"/><stop offset="0.39" style="stop-color:rgb(255,248,204);stop-opacity:1"/><stop offset="0.51" style="stop-color:rgb(255,244,181);stop-opacity:1"/><stop offset="0.75" style="stop-color:rgb(212,169,74);stop-opacity:1"/><stop offset="0.88" style="stop-color:rgb(255,248,204);stop-opacity:1"/><stop offset="1" style="stop-color:rgb(159,116,32);stop-opacity:1"/></linearGradient>
        <linearGradient id="_Linear2" x1="0" y1="0" x2="1" y2="0" gradientUnits="userSpaceOnUse" gradientTransform="matrix(734.499843,-4.479999,4.479999,734.499843,-130.586,-58.656435)"><stop offset="0" style="stop-color:rgb(184,138,44);stop-opacity:1"/><stop offset="0.13" style="stop-color:rgb(255,248,204);stop-opacity:1"/><stop offset="0.25" style="stop-color:rgb(224,185,92);stop-opacity:1"/><stop offset="0.33" style="stop-color:white;stop-opacity:1"/><stop offset="0.39" style="stop-color:rgb(255,248,204);stop-opacity:1"/><stop offset="0.51" style="stop-color:rgb(255,244,181);stop-opacity:1"/><stop offset="0.75" style="stop-color:rgb(212,169,74);stop-opacity:1"/><stop offset="0.88" style="stop-color:rgb(255,248,204);stop-opacity:1"/><stop offset="1" style="stop-color:rgb(159,116,32);stop-opacity:1"/></linearGradient>
        <linearGradient id="_Linear3" x1="0" y1="0" x2="1" y2="0" gradientUnits="userSpaceOnUse" gradientTransform="matrix(734.499843,-4.479999,4.479999,734.499843,-545.5121,-15.652535)"><stop offset="0" style="stop-color:rgb(184,138,44);stop-opacity:1"/><stop offset="0.13" style="stop-color:rgb(255,248,204);stop-opacity:1"/><stop offset="0.25" style="stop-color:rgb(224,185,92);stop-opacity:1"/><stop offset="0.33" style="stop-color:white;stop-opacity:1"/><stop offset="0.39" style="stop-color:rgb(255,248,204);stop-opacity:1"/><stop offset="0.51" style="stop-color:rgb(255,244,181);stop-opacity:1"/><stop offset="0.75" style="stop-color:rgb(212,169,74);stop-opacity:1"/><stop offset="0.88" style="stop-color:rgb(255,248,204);stop-opacity:1"/><stop offset="1" style="stop-color:rgb(159,116,32);stop-opacity:1"/></linearGradient>
        <linearGradient id="_Linear4" x1="0" y1="0" x2="1" y2="0" gradientUnits="userSpaceOnUse" gradientTransform="matrix(734.499843,-4.479999,4.479999,734.499843,-158.0111,6.150365)"><stop offset="0" style="stop-color:rgb(184,138,44);stop-opacity:1"/><stop offset="0.13" style="stop-color:rgb(255,248,204);stop-opacity:1"/><stop offset="0.25" style="stop-color:rgb(224,185,92);stop-opacity:1"/><stop offset="0.33" style="stop-color:white;stop-opacity:1"/><stop offset="0.39" style="stop-color:rgb(255,248,204);stop-opacity:1"/><stop offset="0.51" style="stop-color:rgb(255,244,181);stop-opacity:1"/><stop offset="0.75" style="stop-color:rgb(212,169,74);stop-opacity:1"/><stop offset="0.88" style="stop-color:rgb(255,248,204);stop-opacity:1"/><stop offset="1" style="stop-color:rgb(159,116,32);stop-opacity:1"/></linearGradient>
        <linearGradient id="_Linear5" x1="0" y1="0" x2="1" y2="0" gradientUnits="userSpaceOnUse" gradientTransform="matrix(734.499843,-4.479999,4.479999,734.499843,-590.7912,37.527265)"><stop offset="0" style="stop-color:rgb(184,138,44);stop-opacity:1"/><stop offset="0.13" style="stop-color:rgb(255,248,204);stop-opacity:1"/><stop offset="0.25" style="stop-color:rgb(224,185,92);stop-opacity:1"/><stop offset="0.33" style="stop-color:white;stop-opacity:1"/><stop offset="0.39" style="stop-color:rgb(255,248,204);stop-opacity:1"/><stop offset="0.51" style="stop-color:rgb(255,244,181);stop-opacity:1"/><stop offset="0.75" style="stop-color:rgb(212,169,74);stop-opacity:1"/><stop offset="0.88" style="stop-color:rgb(255,248,204);stop-opacity:1"/><stop offset="1" style="stop-color:rgb(159,116,32);stop-opacity:1"/></linearGradient>
        <linearGradient id="_Linear6" x1="0" y1="0" x2="1" y2="0" gradientUnits="userSpaceOnUse" gradientTransform="matrix(734.499843,-4.479999,4.479999,734.499843,-734.4981,110.901965)"><stop offset="0" style="stop-color:rgb(184,138,44);stop-opacity:1"/><stop offset="0.13" style="stop-color:rgb(255,248,204);stop-opacity:1"/><stop offset="0.25" style="stop-color:rgb(224,185,92);stop-opacity:1"/><stop offset="0.33" style="stop-color:white;stop-opacity:1"/><stop offset="0.39" style="stop-color:rgb(255,248,204);stop-opacity:1"/><stop offset="0.51" style="stop-color:rgb(255,244,181);stop-opacity:1"/><stop offset="0.75" style="stop-color:rgb(212,169,74);stop-opacity:1"/><stop offset="0.88" style="stop-color:rgb(255,248,204);stop-opacity:1"/><stop offset="1" style="stop-color:rgb(159,116,32);stop-opacity:1"/></linearGradient>
        <linearGradient id="_Linear7" x1="0" y1="0" x2="1" y2="0" gradientUnits="userSpaceOnUse" gradientTransform="matrix(734.499843,-4.479999,4.479999,734.499843,-271.3241,31.061565)"><stop offset="0" style="stop-color:rgb(184,138,44);stop-opacity:1"/><stop offset="0.13" style="stop-color:rgb(255,248,204);stop-opacity:1"/><stop offset="0.25" style="stop-color:rgb(224,185,92);stop-opacity:1"/><stop offset="0.33" style="stop-color:white;stop-opacity:1"/><stop offset="0.39" style="stop-color:rgb(255,248,204);stop-opacity:1"/><stop offset="0.51" style="stop-color:rgb(255,244,181);stop-opacity:1"/><stop offset="0.75" style="stop-color:rgb(212,169,74);stop-opacity:1"/><stop offset="0.88" style="stop-color:rgb(255,248,204);stop-opacity:1"/><stop offset="1" style="stop-color:rgb(159,116,32);stop-opacity:1"/></linearGradient>
    </defs>
</svg>
